HIERARCHY
ROOT Hips
{
  OFFSET 3.13124 94.3669 -3.18751
  CHANNELS  6 Xposition Yposition Zposition Zrotation Xrotation Yrotation
  JOINT LeftUpLeg
  {
    OFFSET 8.64259 1.95398 -2.38835
    CHANNELS 3 Zrotation Xrotation Yrotation
    JOINT LeftLeg
    {
      OFFSET 43.7702 0 0
      CHANNELS 3 Zrotation Xrotation Yrotation
      JOINT LeftFoot
      {
        OFFSET 40.6238 0 0
        CHANNELS 3 Zrotation Xrotation Yrotation
        JOINT LeftToeBase
        {
          OFFSET 12.7242 0 0
          CHANNELS 3 Zrotation Xrotation Yrotation
          End Site
          {
            OFFSET 0 0 0
          }
        }
      }
    }
  }
  JOINT RightUpLeg
  {
    OFFSET -8.2249 1.95398 -2.59336
    CHANNELS 3 Zrotation Xrotation Yrotation
    JOINT RightLeg
    {
      OFFSET 43.5653 0 0
      CHANNELS 3 Zrotation Xrotation Yrotation
      JOINT RightFoot
      {
        OFFSET 40.6238 0 0
        CHANNELS 3 Zrotation Xrotation Yrotation
        JOINT RightToeBase
        {
          OFFSET 12.7242 0 0
          CHANNELS 3 Zrotation Xrotation Yrotation
          End Site
          {
            OFFSET 0 0 0
          }
        }
      }
    }
  }
  JOINT Spine
  {
    OFFSET 0.165834 0.87714 6.61349
    CHANNELS 3 Zrotation Xrotation Yrotation
    JOINT Spine1
    {
      OFFSET 7.38962 1.71661e-005 0
      CHANNELS 3 Zrotation Xrotation Yrotation
      JOINT Spine2
      {
        OFFSET 11.9445 1.14441e-005 0
        CHANNELS 3 Zrotation Xrotation Yrotation
        JOINT Spine3
        {
          OFFSET 14.7254 4.19617e-005 0
          CHANNELS 3 Zrotation Xrotation Yrotation
          JOINT Spine4
          {
            OFFSET 10.9679 0 0
            CHANNELS 3 Zrotation Xrotation Yrotation
            JOINT RightShoulder
            {
              OFFSET 2.46616 -1.6653 3.69651
              CHANNELS 3 Zrotation Xrotation Yrotation
              JOINT RightArm
              {
                OFFSET 13.0012 0 0
                CHANNELS 3 Zrotation Xrotation Yrotation
                JOINT RightForeArm
                {
                  OFFSET 28.7848 1.52588e-005 0
                  CHANNELS 3 Zrotation Xrotation Yrotation
                  JOINT RightHand
                  {
                    OFFSET 26.5688 1.52588e-005 0
                    CHANNELS 3 Zrotation Xrotation Yrotation
                    End Site
                    {
                      OFFSET 0 0 0
                    }
                  }
                }
              }
            }
            JOINT LeftShoulder
            {
              OFFSET 2.38034 -1.29275 -3.75231
              CHANNELS 3 Zrotation Xrotation Yrotation
              JOINT LeftArm
              {
                OFFSET 16.3182 6.10352e-005 0
                CHANNELS 3 Zrotation Xrotation Yrotation
                JOINT LeftForeArm
                {
                  OFFSET 27.0901 0 0
                  CHANNELS 3 Zrotation Xrotation Yrotation
                  JOINT LeftHand
                  {
                    OFFSET 24.5451 1.52588e-005 0
                    CHANNELS 3 Zrotation Xrotation Yrotation
                    End Site
                    {
                      OFFSET 0 0 0
                    }
                  }
                }
              }
            }
            JOINT Neck
            {
              OFFSET 5.0226 -0.0266342 0
              CHANNELS 3 Zrotation Xrotation Yrotation
              JOINT Head
              {
                OFFSET 6.69363 2.86102e-005 0
                CHANNELS 3 Zrotation Xrotation Yrotation
                End Site
                {
                  OFFSET 0 0 0
                }
              }
            }
          }
        }
      }
    }
  }
}
MOTION
Frames:	18
Frame Time:	0.0333333
-23.3567 89.2398 -81.5667 90.1469 -1.06351 78.0088 -175.686 48.101 86.6661 -43.5104 -3.57948 2.17378 15.236 -2.00654 -5.19632 28.7808 7.73236e-006 1.06584e-005 179.377 7.28443 75.5859 -50.534 70.1522 9.95443 69.4014 -4.49386 -2.31602 28.7808 1.73858e-005 2.59385e-005 1.81676 8.01186 -88.7069 10.9604 4.54414 -0.366989 -0.70267 4.52357 -0.567037 -23.2998 4.44393 1.01848 -3.28711 4.44393 1.01847 78.1046 -55.5151 -116.435 -89.5046 -10.8188 -59.5422 -79.0381 27.1311 -68.7655 -48.7524 9.80515 -26.9244 -75.896 8.55639 105.549 -20.4233 -19.6914 -7.7341 83.9206 -44.3069 -97.0916 43.1272 10.27 19.8717 47.1639 -17.7656 -14.4342 -4.1156 -8.99438 10.5866 
-20.6853 87.7909 -83.6351 89.1335 -0.854308 79.0855 -175.805 46.6885 88.4344 -34.952 3.41503 4.38041 19.719 -2.67797 -5.55966 28.7808 7.73236e-006 1.06584e-005 179.294 7.30959 75.1212 -52.3371 69.9567 10.0447 69.3441 -3.29811 -1.74648 28.7808 1.73858e-005 2.59385e-005 2.06377 7.90629 -89.2491 11.1469 4.68414 -0.567946 -0.515887 4.65456 -0.773991 -23.1177 4.63779 0.869219 -3.10505 4.63777 0.869204 81.243 -52.7543 -113.032 -81.1429 -4.56056 -60.3914 -71.6943 22.1818 -74.6056 -45.1154 10.7012 -30.9475 -75.9449 8.67017 105.351 -19.8432 -22.1158 -14.1583 81.3037 -35.9398 -97.8082 44.9457 10.4929 19.9028 52.737 -16.975 -9.41616 -9.34042 -10.5598 6.25298 
-17.599 86.7035 -86.0056 87.9216 -1.47251 80.0048 -176.519 45.5568 90.4651 -29.9825 4.25361 5.39985 22.0103 -1.66328 -4.00955 28.7808 7.73236e-006 1.06584e-005 178.922 6.52953 74.0319 -51.7314 68.8125 9.5296 68.8041 -2.37646 -1.29572 28.7808 1.73858e-005 2.59385e-005 2.30301 7.81576 -89.6063 11.3158 4.88871 -0.789942 -0.346296 4.84919 -1.00484 -22.9548 4.89957 0.71928 -2.9421 4.89957 0.71928 84.9116 -49.2274 -108.812 -71.8061 2.84041 -63.0319 -63.4725 15.9116 -80.5982 -43.5471 11.1185 -32.8491 -75.2966 7.61325 108.013 -15.1658 -47.8059 -25.9106 71.5124 -14.7243 -96.9476 52.7297 -18.7849 -39.3822 59.8943 -15.9151 -4.82567 -14.6292 -11.7424 3.15653 
-13.8308 85.9944 -88.7278 86.9528 -2.93731 80.2761 -176.814 43.3918 91.3524 -29.633 6.80916 6.72652 22.8421 -3.57667 -6.02106 28.7808 7.73236e-006 1.06584e-005 177.838 4.39306 71.6137 -48.0076 66.5956 8.53718 67.6404 -1.92443 -1.06215 28.7808 1.73858e-005 2.59385e-005 2.57107 7.69253 -89.7827 11.5602 5.23401 -0.937805 -0.100747 5.18764 -1.16785 -22.7206 5.27319 0.686756 -2.70794 5.2732 0.68676 88.2694 -44.9194 -104.815 -63.2179 8.88293 -66.2547 -55.6117 9.33992 -84.8581 -48.2392 13.7862 -35.9099 -74.6426 6.7179 110.554 -14.4277 -45.0919 -30.3868 69.4013 -6.49456 -94.088 53.6797 -19.6839 -40.447 63.5353 -15.3772 -2.86202 -16.1519 -12.2763 2.61224 
-9.28511 85.6727 -91.8622 86.0466 -4.97129 79.9959 -176.584 40.7141 91.4722 -34.4524 4.21689 6.5365 42.8646 -10.447 -9.87221 28.7808 7.73236e-006 1.06584e-005 175.498 0.962788 67.8872 -40.7035 63.0336 7.19328 65.0688 -2.12008 -1.14909 28.7808 1.73858e-005 2.59385e-005 2.77573 7.46012 -89.907 12.0464 5.56445 -1.34771 0.386403 5.49971 -1.59202 -22.2452 5.71154 0.392673 -2.23257 5.71154 0.392665 91.1925 -35.116 -102.478 -49.8112 12.9353 -70.504 -59.9297 -0.818926 -83.4665 -52.6279 11.8424 -29.1617 -74.1478 1.938 110.351 -12.2717 -45.9872 -35.6915 75.2575 4.04751 -91.1691 60.1949 -19.7823 -36.3086 66.8073 -9.08948 8.86736 -23.6389 -13.1011 -9.51911 
-4.43995 85.6556 -95.3671 84.8827 -6.86466 78.7054 -175.054 39.6575 88.8903 -38.8196 0.400459 3.20968 55.9405 -6.87843 -5.00089 28.7808 7.73236e-006 1.06584e-005 171.641 -2.14204 62.3357 -31.0602 55.4608 5.04386 59.4445 -2.89104 -1.59487 28.7808 1.73858e-005 2.59385e-005 2.78313 7.67987 -89.8123 11.631 5.659 -1.54533 -0.0288265 5.58576 -1.79316 -22.6634 5.85918 0.229729 -2.6508 5.85918 0.229716 99.7507 -12.8015 -89.1653 -23.9926 21.3653 -88.1935 -63.1271 -12.0807 -82.1588 -60.0601 10.6771 -23.7077 -70.2011 -8.76494 118.543 -13.9629 -44.209 -55.1826 74.7517 18.2764 -86.6301 76.1917 -18.6355 -26.8753 81.7872 2.52724 23.3324 -41.9827 -10.1238 -26.1001 
0.499816 85.6648 -98.8811 84.8924 -8.48304 77.2909 -174.859 37.9265 85.7174 -43.3229 -3.12295 1.42115 64.4836 -4.38988 -2.63284 28.7808 7.73236e-006 1.06584e-005 168.836 -3.06023 55.8922 -27.0332 43.902 3.03822 47.3276 -3.4249 -2.10011 28.7808 1.73858e-005 2.59385e-005 2.9469 7.51818 -89.3479 11.9766 5.98885 -1.13144 0.318672 5.93304 -1.3939 -22.3265 6.05251 0.721873 -2.31387 6.05251 0.721851 102.007 -7.81078 -82.6989 -14.9343 23.356 -94.5362 -66.552 -19.2096 -79.9598 -59.8387 10.2134 -23.0065 -70.1992 -7.12468 119.279 -11.7105 -47.2731 -52.9414 79.4363 20.517 -87.8479 68.1441 -12.9038 -22.4952 81.6355 0.160755 21.1125 -40.7097 -11.2411 -23.6187 
5.16808 85.8065 -102.092 86.1143 -10.0469 77.2378 -174.98 35.8142 83.4549 -48.1499 -5.03603 0.759547 69.2549 -3.41704 -1.76464 28.7808 7.73236e-006 1.06584e-005 167.515 -2.7084 51.4158 -26.2035 32.5876 1.76011 32.1133 -5.91404 -4.87632 28.7808 1.73858e-005 2.59385e-005 3.23003 7.3201 -89.3213 12.4333 6.40454 -1.73449 0.776611 6.32197 -2.01562 -21.8849 6.62845 0.269683 -1.87221 6.62843 0.269667 103.419 4.90287 -76.2639 -3.24571 21.82 -99.7724 -62.1091 -27.5487 -75.112 -62.3853 10.7992 -23.0331 -71.9958 -8.98462 113.372 -7.24466 -47.137 -57.2294 77.6978 36.8763 -83.8572 80.9513 -11.9517 -17.6918 76.9529 2.93412 26.4798 -40.5408 -11.2429 -27.7563 
9.49515 86.5521 -104.87 86.5125 -11.6192 78.977 -174.867 33.1501 83.0668 -49.7671 -7.08124 -0.0116502 72.8533 -1.65507 -0.685041 28.7808 7.73236e-006 1.06584e-005 167.375 -3.36699 51.5345 -26.0574 17.285 0.714634 29.7831 -4.65377 -3.77981 28.7808 1.73858e-005 2.59385e-005 3.08962 7.05475 -89.237 12.9569 6.00662 -1.67686 1.29854 5.9269 -1.94144 -21.3486 6.23252 0.210751 -1.33589 6.23256 0.210739 104.836 -0.866968 -71.8602 -1.44643 24.1957 -106.118 -58.9629 -36.5191 -70.9071 -61.332 11.5302 -24.6385 -72.0889 -3.11315 115.432 0.555413 -45.1243 -71.6871 40.0996 66.3232 -43.2793 108.415 -14.3229 -14.3007 77.3717 -2.77842 18.6287 -38.1739 -11.9396 -20.9456 
13.2574 88.0256 -106.748 87.6176 -13.2487 81.1522 -174.62 28.3722 83.6228 -47.8677 -7.99251 -0.455297 74.3736 -0.223759 0.0441719 28.7808 7.73236e-006 1.06584e-005 169.296 -4.88012 55.0906 -29.7846 11.8306 0.398471 32.3048 -1.94733 -0.935262 28.7808 1.73858e-005 2.59385e-005 2.95236 6.93876 -89.361 13.1744 5.5441 -1.82482 1.51362 5.45842 -2.06767 -21.1166 5.83543 -0.0687284 -1.10395 5.83543 -0.0687472 105.441 0.571593 -69.022 5.18265 24.0568 -110.375 -57.493 -45.3466 -64.5724 -63.9445 11.9095 -24.2974 -72.3421 0.586894 116.486 5.89088 -45.5004 -73.2143 6.24948 64.9535 -7.33819 114.906 -17.1573 -14.8407 78.0414 -5.91849 14.0554 -36.3495 -12.1341 -17.2213 
16.7738 90.1978 -107.623 89.3578 -13.5794 83.8161 -174.617 22.6116 84.7662 -43.9423 -7.53084 0.303269 72.6815 0.390472 0.299058 28.7808 7.73236e-006 1.06584e-005 171.656 -7.42941 61.5665 -33.1627 17.6272 0.741031 34.9569 -4.5368 -3.46742 28.7808 1.73858e-005 2.59385e-005 2.8696 6.81252 -89.6082 13.4081 5.15034 -2.03859 1.74537 5.05562 -2.26372 -20.8708 5.5253 -0.392092 -0.858113 5.52528 -0.392114 106.054 -2.67724 -68.047 7.44911 24.9229 -112.6 -55.0849 -55.3064 -58.3105 -63.9128 11.3259 -23.3896 -73.6025 4.94659 114.018 8.85645 -44.7233 -64.96 5.41703 60.2511 -6.50529 103.186 -14.0156 -14.9781 76.891 -8.26765 11.4575 -33.3126 -13.0311 -14.3598 
19.3006 93.3115 -108.685 90.1068 -12.4424 85.8931 -175.207 17.504 85.5116 -36.8639 -4.71864 1.89531 66.0233 -0.0978523 -0.119185 28.7808 7.73236e-006 1.06584e-005 174.551 -7.46695 69.4369 -36.0864 26.7098 1.41538 35.2338 -5.29489 -4.19995 28.7808 1.73858e-005 2.59385e-005 2.69131 6.62788 -90.0353 13.7332 4.78349 -2.1315 2.069 4.68498 -2.34018 -20.5354 5.18767 -0.592578 -0.522766 5.1877 -0.592585 106.667 -2.24208 -65.5678 11.0586 24.688 -115.139 -47.7266 -63.5263 -47.0696 -61.9351 11.3535 -24.3283 -74.757 7.15154 110.892 9.64553 -43.1877 -59.6636 4.41477 51.8448 -5.49751 88.2143 -8.94859 -13.1673 79.226 -8.97835 10.9447 -33.5958 -13.9366 -12.2426 
22.0517 97.4295 -109.397 91.515 -14.5752 86.8367 -174.702 9.90261 86.7036 -26.4604 -1.89225 1.60904 53.2463 -1.88712 -1.778 28.7808 7.73236e-006 1.06584e-005 175.609 -7.16757 74.5683 -33.8387 28.4316 1.6796 30.5659 -1.7403 -0.732747 28.7808 1.73858e-005 2.59385e-005 2.54957 6.32547 -90.002 14.2785 4.8856 -1.12953 2.61606 4.83224 -1.34539 -19.9929 4.99007 0.405065 0.0197614 4.99008 0.405051 105.153 -20.0924 -74.8457 2.84153 30.3818 -109.286 -13.1819 -56.8431 -22.4069 -80.826 6.89564 -10.602 -77.1437 24.1383 104.189 7.86963 -36.8156 -47.3007 4.38202 51.4922 -5.46449 81.0159 -1.17901 -5.58145 72.4301 -22.4341 -10.022 -23.7694 -13.8172 8.40194 
24.274 101.73 -109.971 92.0275 -17.6097 87.7762 -173.94 4.31748 88.4982 -15.3428 -0.698306 0.704138 32.6337 -4.59496 -5.83563 28.7808 7.73236e-006 1.06584e-005 176.513 -6.4192 79.6362 -27.7094 25.8207 1.68421 22.4131 3.39844 5.49883 28.7808 1.73858e-005 2.59385e-005 2.65176 6.30066 -90.5302 14.2826 5.16134 -1.11215 2.62141 5.10756 -1.34019 -19.9969 5.25513 0.497417 0.0157165 5.25511 0.497398 105.983 -17.9709 -72.4547 1.80336 31.6269 -109.155 -130.739 -73.9843 -135.799 4.63833 3.195 60.0269 -77.2543 24.2602 102.235 10.5214 -36.8496 -41.4741 4.69243 54.6008 -5.77721 73.5478 -1.28371 -5.90454 80.5255 -22.0312 -7.76482 -30.334 -14.508 8.09667 
26.2771 105.217 -110.581 92.1676 -19.9603 87.913 -173.512 1.28077 89.7129 -6.86582 -2.91825 -0.227976 12.1516 -6.50242 -11.7395 28.7808 7.73236e-006 1.06584e-005 176.45 -7.47955 83.5881 -17.3424 9.194 0.545576 18.5613 6.26731 9.80316 28.7808 1.73858e-005 2.59385e-005 2.73804 6.31198 -91.2302 14.1806 5.34498 -0.906416 2.52022 5.29914 -1.14161 -20.1029 5.37458 0.747966 -0.0902019 5.37459 0.747954 106.602 -14.3274 -70.0595 7.82915 31.7003 -113.216 -21.4613 -75.8867 -25.8122 -15.4824 -7.07752 51.7602 -76.3651 20.9085 109.681 9.04556 -38.6059 -49.4649 4.9408 56.757 -6.02718 72.1024 -1.82341 -6.65118 88.822 -19.781 -3.48728 -38.4731 -15.3217 5.82239 
27.6343 107.499 -111.369 91.9011 -20.8022 86.1657 -174.093 2.28129 88.9873 -6.58793 -6.78866 -1.02214 4.52836 -5.95331 -13.0035 28.7808 7.73236e-006 1.06584e-005 177.295 -5.58576 85.8074 -13.9258 3.09376 0.170908 20.6742 6.24964 9.47001 28.7808 1.73858e-005 2.59385e-005 2.71093 6.35501 -91.0375 14.0807 5.31986 -0.409696 2.42047 5.29552 -0.644316 -20.1997 5.20416 1.21408 -0.187013 5.20417 1.21407 107.092 -9.66881 -67.2859 18.281 29.7414 -119.257 -8.73372 -62.5834 -0.00974267 -52.8988 10.0252 -25.5609 -75.1382 16.383 114.719 8.3171 -40.9003 -57.0658 4.99919 57.2275 -6.08587 76.5197 0.132101 -4.0949 93.6012 -17.01 0.681562 -44.4059 -15.8827 2.54721 
29.0743 108.998 -112.133 92.6037 -22.5397 84.133 -174.872 2.18947 87.3817 -7.46798 -7.28143 -0.992666 5.07545 -3.53869 -8.73295 28.7808 7.73236e-006 1.06584e-005 177.626 -4.80641 85.934 -11.4543 3.43594 0.183796 21.4513 6.85418 9.9851 28.7808 1.73858e-005 2.59385e-005 2.74192 6.50238 -90.4011 13.8123 5.53739 0.0324435 2.15313 5.53345 -0.212058 -20.4705 5.2689 1.69987 -0.45782 5.26889 1.69986 106.627 -3.97537 -66.6219 18.1698 32.7585 -113.533 -5.93617 -53.3327 -0.00544257 -57.3082 6.56494 -17.2874 -74.7545 13.9727 114.845 8.60231 -41.9014 -58.9575 4.69034 54.5834 -5.77499 77.1371 0.975697 -3.0876 90.8592 -15.7823 1.69969 -38.8384 -16.3597 3.30863 
30.2328 109.438 -113.207 93.8194 -23.7079 82.4622 -174.881 3.87505 86.466 -11.0185 -7.84524 -1.46235 7.08842 -1.93169 -5.83647 28.7808 7.73236e-006 1.06584e-005 177.766 -6.12673 85.6865 -7.48471 4.56233 0.24164 20.933 8.20003 11.7392 28.7808 1.73858e-005 2.59385e-005 2.72328 6.7144 -89.7948 13.4266 5.60526 0.272523 1.7678 5.61134 0.0247859 -20.8559 5.26644 1.94912 -0.84319 5.26642 1.94911 105.986 2.66101 -65.8558 19.7671 34.0302 -109.131 -6.15733 -49.6681 -0.280061 -57.2925 6.01265 -16.2649 -74.4621 10.4063 113.579 9.27766 -42.8458 -59.7119 4.263 50.1541 -5.34456 77.2176 0.0134538 -4.24523 89.2195 -10.7682 7.17073 -41.1525 -15.4975 -3.05451 
